<?xml version="1.0" encoding="utf-8"?>
<!-- Generator: Adobe Illustrator 16.0.4, SVG Export Plug-In . SVG Version: 6.00 Build 0)  -->
<!DOCTYPE svg PUBLIC "-//W3C//DTD SVG 1.1//EN" "http://www.w3.org/Graphics/SVG/1.1/DTD/svg11.dtd">
<svg version="1.1" id="Layer_1" xmlns="http://www.w3.org/2000/svg" xmlns:xlink="http://www.w3.org/1999/xlink" x="0px" y="0px"
	 width="431.279px" height="431.063px" viewBox="0 0 431.279 431.063" enable-background="new 0 0 431.279 431.063"
	 xml:space="preserve">
<g>
	<path d="M19.907,171.264c9.09-40.312,30.348-76.061,59.699-103.18l-9.715-11.578c-2.279,2.095-4.529,4.234-6.732,6.437
		C33.692,92.41,13.812,128.906,5.065,168.647L19.907,171.264z"/>
	<path d="M15,215.423c0-8.619,0.547-17.113,1.607-25.449L1.81,187.366C0.617,196.597,0,205.962,0,215.423
		c0,35.23,8.406,69.164,24.243,99.532l13.109-7.568C23.076,279.822,15,248.549,15,215.423z"/>
	<path d="M416.279,215.423c0,33.126-8.076,64.399-22.354,91.964l13.11,7.569c15.837-30.368,24.243-64.303,24.243-99.533
		c0-9.461-0.617-18.826-1.81-28.057l-14.797,2.609C415.732,198.311,416.279,206.804,416.279,215.423z"/>
	<path d="M411.372,171.265l14.842-2.617c-8.746-39.741-28.627-76.237-58.094-105.704c-2.203-2.203-4.452-4.341-6.731-6.436
		l-9.715,11.577C381.024,95.204,402.282,130.953,411.372,171.265z"/>
	<path d="M138.168,400.497c-37.606-15.801-69.421-42.739-91.292-76.669l-13.112,7.57c8.355,13.047,18.176,25.288,29.395,36.506
		c20.343,20.343,44.035,36.119,69.832,46.817L138.168,400.497z"/>
	<path d="M384.401,323.829c-21.87,33.929-53.685,60.867-91.291,76.668l5.177,14.226c25.798-10.698,49.489-26.476,69.833-46.818
		c11.218-11.218,21.039-23.459,29.395-36.505L384.401,323.829z"/>
	<path d="M225.139,15.015c41.968,1.966,80.599,16.889,111.988,40.846l9.726-11.59C311.858,17.329,269.716,1.92,225.139,0V15.015z"/>
	<path d="M275.264,407.019c-18.844,5.876-38.871,9.044-59.625,9.044c-20.753,0-40.781-3.168-59.625-9.044l-5.16,14.177
		c20.693,6.488,42.478,9.867,64.785,9.867s44.092-3.379,64.785-9.867L275.264,407.019z"/>
	<path d="M94.152,55.861c31.389-23.957,70.02-38.88,111.987-40.846V0C161.563,1.92,119.42,17.329,84.426,44.271L94.152,55.861z"/>
</g>
<g>
	<defs>
		<path id="SVGID_1_" d="M215.64-26.616v65.998c0.746,0,1.487,0.016,2.23,0.025h-2.231v176.125L332.16,82.477l42.939-50.115
			C332.236-4.398,276.536-26.616,215.64-26.616z"/>
	</defs>
	<clipPath id="SVGID_2_">
		<use xlink:href="#SVGID_1_"  overflow="visible"/>
	</clipPath>
	<g clip-path="url(#SVGID_2_)">
		<path fill="#ED1F24" d="M19.907,171.264c9.09-40.312,30.348-76.061,59.699-103.18l-9.715-11.578
			c-2.279,2.095-4.529,4.234-6.732,6.437C33.692,92.41,13.812,128.906,5.065,168.647L19.907,171.264z"/>
		<path fill="#ED1F24" d="M15,215.423c0-8.619,0.547-17.113,1.607-25.449L1.81,187.366C0.617,196.597,0,205.962,0,215.423
			c0,35.23,8.406,69.164,24.243,99.532l13.109-7.568C23.076,279.822,15,248.549,15,215.423z"/>
		<path fill="#ED1F24" d="M416.279,215.423c0,33.126-8.076,64.399-22.354,91.964l13.11,7.569
			c15.837-30.368,24.243-64.303,24.243-99.533c0-9.461-0.617-18.826-1.81-28.057l-14.797,2.609
			C415.732,198.311,416.279,206.804,416.279,215.423z"/>
		<path fill="#ED1F24" d="M411.372,171.265l14.842-2.617c-8.746-39.741-28.627-76.237-58.094-105.704
			c-2.203-2.203-4.452-4.341-6.731-6.436l-9.715,11.577C381.024,95.204,402.282,130.953,411.372,171.265z"/>
		<path fill="#ED1F24" d="M138.168,400.497c-37.606-15.801-69.421-42.739-91.292-76.669l-13.112,7.57
			c8.355,13.047,18.176,25.288,29.395,36.506c20.343,20.343,44.035,36.119,69.832,46.817L138.168,400.497z"/>
		<path fill="#ED1F24" d="M384.401,323.829c-21.87,33.929-53.685,60.867-91.291,76.668l5.177,14.226
			c25.798-10.698,49.489-26.476,69.833-46.818c11.218-11.218,21.039-23.459,29.395-36.505L384.401,323.829z"/>
		<path fill="#ED1F24" d="M225.139,15.015c41.968,1.966,80.599,16.889,111.988,40.846l9.726-11.59
			C311.858,17.329,269.716,1.92,225.139,0V15.015z"/>
		<path fill="#ED1F24" d="M275.264,407.019c-18.844,5.876-38.871,9.044-59.625,9.044c-20.753,0-40.781-3.168-59.625-9.044
			l-5.16,14.177c20.693,6.488,42.478,9.867,64.785,9.867s44.092-3.379,64.785-9.867L275.264,407.019z"/>
		<path fill="#ED1F24" d="M94.152,55.861c31.389-23.957,70.02-38.88,111.987-40.846V0C161.563,1.92,119.42,17.329,84.426,44.271
			L94.152,55.861z"/>
	</g>
</g>
</svg>
