<?xml version="1.0" encoding="utf-8"?>
<!-- Generator: Adobe Illustrator 16.0.4, SVG Export Plug-In . SVG Version: 6.00 Build 0)  -->
<!DOCTYPE svg PUBLIC "-//W3C//DTD SVG 1.1//EN" "http://www.w3.org/Graphics/SVG/1.1/DTD/svg11.dtd">
<svg version="1.1" id="Layer_1" xmlns="http://www.w3.org/2000/svg" xmlns:xlink="http://www.w3.org/1999/xlink" x="0px" y="0px"
	 width="162.09px" height="16.057px" viewBox="0 0 162.09 16.057" enable-background="new 0 0 162.09 16.057" xml:space="preserve">
<text transform="matrix(1 0 0 1 20.7207 10.283)" font-family="'HelveticaNeue'" font-size="12">Drag a file here to upload</text>
<rect y="0.865" fill="none" width="81.045" height="12"/>
<g enable-background="new    ">
	<path d="M10.607-10.063c0,0.71-0.251,1.315-0.753,1.818C9.352-7.742,8.746-7.491,8.036-7.491H0.75c-0.826,0-1.532-0.294-2.12-0.881
		c-0.587-0.587-0.88-1.293-0.88-2.119c0-0.58,0.156-1.116,0.469-1.607s0.732-0.859,1.259-1.104c-0.009-0.134-0.013-0.23-0.013-0.288
		c0-0.946,0.335-1.755,1.004-2.424c0.669-0.67,1.478-1.005,2.424-1.005c0.696,0,1.333,0.194,1.912,0.583
		c0.578,0.388,0.999,0.903,1.262,1.547c0.317-0.277,0.688-0.415,1.112-0.415c0.473,0,0.877,0.167,1.212,0.502
		s0.502,0.739,0.502,1.212c0,0.339-0.092,0.647-0.275,0.924c0.581,0.139,1.057,0.441,1.43,0.907
		C10.421-11.194,10.607-10.661,10.607-10.063z M6.321-11.563c0-0.062-0.02-0.114-0.06-0.154s-0.092-0.061-0.154-0.061h-1.5v-2.356
		c0-0.059-0.021-0.108-0.063-0.151c-0.042-0.042-0.093-0.063-0.15-0.063H3.107c-0.058,0-0.108,0.021-0.15,0.063
		c-0.042,0.043-0.063,0.093-0.063,0.151v2.356h-1.5c-0.058,0-0.108,0.021-0.151,0.064c-0.042,0.042-0.063,0.093-0.063,0.15
		c0,0.062,0.02,0.113,0.06,0.154l2.357,2.356c0.04,0.04,0.091,0.061,0.154,0.061s0.114-0.021,0.154-0.061l2.351-2.351
		C6.299-11.455,6.321-11.509,6.321-11.563z"/>
</g>
<g>
	<path d="M12.857,8.02c0,0.709-0.251,1.316-0.753,1.818c-0.502,0.503-1.108,0.753-1.818,0.753H3c-0.826,0-1.532-0.293-2.12-0.88
		C0.293,9.124,0,8.417,0,7.591c0-0.58,0.156-1.116,0.469-1.607c0.312-0.491,0.732-0.859,1.259-1.105
		c-0.009-0.134-0.013-0.23-0.013-0.288c0-0.946,0.335-1.754,1.004-2.424c0.669-0.669,1.478-1.004,2.424-1.004
		c0.696,0,1.333,0.194,1.912,0.583c0.578,0.389,0.999,0.904,1.262,1.547c0.317-0.276,0.688-0.415,1.112-0.415
		c0.473,0,0.877,0.167,1.212,0.502c0.335,0.334,0.502,0.739,0.502,1.212c0,0.339-0.092,0.647-0.275,0.924
		c0.581,0.138,1.057,0.441,1.43,0.907C12.671,6.889,12.857,7.422,12.857,8.02z M8.571,6.091c0-0.062-0.02-0.114-0.06-0.154
		L6.154,3.58C6.114,3.54,6.062,3.52,6,3.52S5.886,3.54,5.846,3.58L3.496,5.93C3.451,5.984,3.429,6.037,3.429,6.091
		c0,0.062,0.02,0.114,0.06,0.154c0.04,0.041,0.091,0.061,0.154,0.061h1.5v2.357c0,0.058,0.021,0.107,0.063,0.15
		s0.092,0.063,0.15,0.063h1.286c0.058,0,0.108-0.021,0.15-0.063s0.063-0.093,0.063-0.15V6.305h1.5c0.058,0,0.108-0.021,0.151-0.063
		S8.571,6.149,8.571,6.091z"/>
</g>
</svg>
